<?xml version="1.0" encoding="utf-8"?>
<!-- Generator: Adobe Illustrator 17.1.0, SVG Export Plug-In . SVG Version: 6.00 Build 0)  -->
<!DOCTYPE svg PUBLIC "-//W3C//DTD SVG 1.1//EN" "http://www.w3.org/Graphics/SVG/1.1/DTD/svg11.dtd">
<svg version="1.1" id="Layer_1" xmlns="http://www.w3.org/2000/svg" xmlns:xlink="http://www.w3.org/1999/xlink" x="0px" y="0px"
	 viewBox="-2.2 800.4 1048.2 216.9" enable-background="new -2.2 800.4 1048.2 216.9" xml:space="preserve">
<polygon fill="#398400" points="189.2,998.1 195.4,898.8 204,917.1 197.7,1016.2 "/>
<polygon fill="#53B905" points="147,1015.6 138.6,997.8 189.5,997.8 197.9,1015.6 "/>
<polygon fill="#3D8D00" points="203.6,917.2 195.4,899.8 195.7,899.6 255.2,997.9 263.4,1015.3 263.1,1015.5 "/>
<polygon fill="#3D8D00" points="195.5,899.7 203.8,917.1 263.3,1015.4 255,998 "/>
<polygon fill="#398400" points="298.8,998.1 311.4,801.7 320,819.8 307.5,1016.2 "/>
<polygon fill="#53B905" points="263.1,1015.6 254.7,997.8 299.1,997.8 307.7,1015.6 "/>
<polygon fill="#223235" points="446.4,854.2 480.3,823.6 488.7,841.4 454.8,871.9 "/>
<path fill="#223235" d="M393.8,936.7c-12.9-1.8-23.2-5.1-31.3-10.2l0,0l-8.6-18l0.6,0.4c7.1,4.5,15.9,7.6,27,9.5h0.2
	c1.3,0.2,2.6,0.4,4,0.6h0.1l8.5,17.7H393.8z"/>
<path fill="#202F33" d="M362.5,926.5c-4.6-2.9-8.5-6.4-11.7-10.6l-8.2-17.2l0.3-0.2c2.9,3.8,6.6,7.1,11,10l0.3,0.2
	c0.1,0.1,0.2,0.1,0.3,0.2l0,0l8.6,18L362.5,926.5z"/>
<path fill="#151F22" d="M350.8,916c-1.7-2.2-3.3-4.7-4.4-7.1l-8.3-17.3l0.4-0.2c1.1,2.4,2.5,4.8,4.2,6.9l0.2,0.3l8.2,17.2L350.8,916
	z"/>
<polygon fill="#263639" points="393.7,936.7 385.3,919 410.2,922.3 418.7,940.1 "/>
<path fill="#1E2D30" d="M465.8,968.1L465.8,968.1c5.7-8.1,9.2-17.7,10.1-28.1c1-11.1,0.1-20.9-2.7-29.1c-0.6-1.6-1.2-3.2-1.8-4.6
	l0.4-0.2l8.3,17.3c4,8.2,5.5,18.3,4.8,31.1c-0.6,11.5-4.2,22.1-10.3,30.9l-0.2,0.3L465.8,968.1z"/>
<path fill="#202F33" d="M452,982.2l0.1-0.1c4.7-3.6,8.7-7.5,12.1-12c0-0.1,0.1-0.1,0.2-0.2c0.2-0.2,0.3-0.4,0.5-0.7
	c0.3-0.4,0.5-0.7,0.9-1.1l0.2-0.2l8.5,17.7l-0.1,0.1c-3.6,5.3-8.2,10-13.7,14.1l-0.2,0.1L452,982.2z"/>
<path fill="#223235" d="M415.1,997.5h0.3c13.3-2.5,24.9-7.2,34.6-13.8c0.7-0.5,1.5-1,2.2-1.6l0.2-0.1l8.4,17.7l-0.1,0.1
	c-10.1,7.6-22.5,12.7-37,15.5h-0.2L415.1,997.5z"/>
<path fill="#263639" d="M399.8,1017.2c-4.2,0-8.4-0.2-13-0.5h-0.1l-8.5-17.7h0.3c4.7,0.3,9.1,0.5,13.1,0.5c7.7,0,14.6-0.5,21.3-1.6
	c0.8-0.1,1.5-0.3,2.3-0.4h0.2l8.4,17.7h-0.3C416.4,1016.5,408.6,1017.2,399.8,1017.2z"/>
<path fill="#223235" d="M386.8,1016.7c-19.3-1.3-34.8-5.7-47.1-13.3l0,0l-8.6-18l0.6,0.4c12.2,7.6,27.4,12,46.3,13.2l0.7,0.1
	l8.5,17.7L386.8,1016.7z"/>
<path fill="#1F2E32" d="M339.7,1003.3c-5.3-3.4-10.3-7.3-14.5-12l-8.3-17.4l0.3-0.2c4.3,4.5,9,8.3,13.9,11.6l0.6,0.4l8.6,18
	L339.7,1003.3z"/>
<path fill="#202F33" d="M454.7,871.7c-1.9-1.9-4.1-3.7-6.4-5.1l0,0l-8.6-18l0.6,0.4c1.7,1.1,3.5,2.3,5.1,3.9
	c0.5,0.4,0.9,0.9,1.4,1.3l8.3,17.4L454.7,871.7z"/>
<path fill="#223235" d="M448.3,866.7c-5.7-3.6-12.7-5.6-21.2-6.2H427l-8.5-17.7h0.3c8.3,0.6,15.4,2.6,21.1,6.1l0.3,0.2l8.6,18
	L448.3,866.7z"/>
<path fill="#263639" d="M400.7,843.3h0.3c2.8-0.5,6.1-0.8,9.9-0.8c2.9,0,5.9,0.2,8.1,0.3h0.1l0.1,0.1l8.4,17.6h-0.3
	c-2.2-0.1-5.2-0.3-8.2-0.3c-3.8,0-6.9,0.3-9.8,0.8h-0.2L400.7,843.3z"/>
<path fill="#223235" d="M389.7,847.9L389.7,847.9c3.2-2.3,6.9-4,11.2-4.8h0.2l0.1,0.1l8.4,17.5h-0.3c-4.4,0.8-8,2.4-11,4.6l-0.2,0.1
	L389.7,847.9z"/>
<path fill="#202F33" d="M385.4,852.4L385.4,852.4c1.2-1.7,2.6-3.3,4.4-4.5l0.2-0.1l0.2,0.2l8.3,17.4l-0.1,0.1
	c-1.6,1.2-3.2,2.7-4.3,4.4l-0.2,0.3L385.4,852.4z"/>
<path fill="#1E2D30" d="M391.8,873.8c-2.8-1.2-7.9-4.2-9.2-10c-0.8-3.7,0.3-7.9,2.8-11.6l0.2-0.3l8.5,17.7l-0.1,0.1
	c-0.6,0.9-1.2,1.9-1.6,2.9c-0.1,0.3-0.3,0.6-0.4,0.9l-0.1,0.2L391.8,873.8z"/>
<path fill="#202F33" d="M420.5,925.4l0.6,0.4c0.9,0.5,1.6,1.1,2.3,1.8c0.2,0.2,0.4,0.5,0.6,0.7l0.1,0.1l2.2,4.7
	c0.1,0.4,0.2,0.7,0.2,1c0.2,1.1,0.3,2.3,0.3,3.7l-0.4,0.1L420.5,925.4z"/>
<path fill="#223235" d="M426.1,942c-2.2-0.9-4.7-1.5-7.8-1.9h-0.1l-8.5-17.7l0.4,0.1c3.3,0.4,7.5,1.2,11.1,3.5l0,0l5.7,11.8
	c0,1.6-0.1,2.9-0.4,4.3v0.2L426.1,942z"/>
<g>
	<path fill="#314043" d="M392,999.3c-2.4,0-5.1-0.1-7.8-0.2h-0.8c-9.5-0.4-17.4-1.3-24.4-2.9c-16.5-3.6-30.8-11.3-41.4-22.3
		l33.7-30.3c4.5,4.5,10.8,7.8,19.1,10.3c6.7,1.9,14.2,3.1,22.2,3.3c0.7,0,1.3,0,1.9,0s1.3,0,1.9,0c7,0,12.4-0.7,17.2-2.3
		c5.3-1.7,9.3-4.7,11.4-8.5c2.8-5.1,3.2-13.7-1.4-18.8c-3.5-3.6-9-4.7-13.4-5.3l-24.4-3.4c-14.1-1.9-24.9-5.7-33.1-11.5
		c-6.4-4.6-11.4-10.6-14.4-17.4c-2.7-6.4-4.2-13.9-4.2-22.4c0-12.2,3.1-23.7,8.7-33.3c11.4-18.9,33.5-30.9,60.7-33.1
		c3.4-0.3,7-0.4,11.2-0.4c11.7,0,22.7,1.4,32.4,4.3c12.4,3.5,23.8,10,32.8,18.8l-33.3,29.8l-0.2-0.2c-10.2-10-24.1-11.3-35-11.3
		c-1.4,0-2.8,0-4.4,0.1c-5.6,0.2-13.4,1.5-18.9,6.8c-4.3,4.1-7.5,11.2-4.6,17.3c2.9,6.5,10.6,8.7,16.5,9.5l24.4,3.4
		c0.6,0.1,3.4,0.5,4.1,0.6c16.2,2.7,27.5,7.8,35.4,16c12.3,12.5,13.2,31.1,11.8,44.6c-1.6,16-9.6,30.3-22.4,40.4
		c-11.7,9.2-27.2,15.3-44.9,17.4C403.5,999,398.1,999.3,392,999.3z"/>
	<path fill="#203542" d="M414.7,801.4c11.7,0,22.6,1.4,32.3,4.2c12.2,3.4,23.3,9.8,32.1,18.3L446.6,853
		c-10.4-10-24.2-11.3-35.2-11.3c-1.4,0-2.8,0-4.4,0.1c-5.7,0.2-13.6,1.6-19.3,6.9c-4.4,4.2-7.7,11.5-4.7,17.9
		c3.1,6.7,10.9,9.1,16.9,9.8l24.4,3.4c0.6,0.1,1.3,0.2,2,0.3c0.7,0.1,1.3,0.2,2,0.3c16.1,2.7,27.3,7.7,35.1,15.9
		c6.7,6.8,14.2,20,11.7,44.1c-1.6,15.9-9.5,30.1-22.2,40.1c-11.6,9.2-27.1,15.2-44.6,17.3c-4.9,0.7-10.3,1-16.4,1
		c-2.4,0-5.1-0.1-7.8-0.2h-0.8c-9.5-0.4-17.4-1.3-24.3-2.9c-16.2-3.6-30.3-11.1-40.8-21.8l33-29.6c4.6,4.4,10.8,7.7,19,10.1
		c6.7,1.9,14.2,3.1,22.4,3.3c0.6,0,1.2,0,1.9,0c0.6,0,1.3,0.1,1.9,0.1c7,0,12.6-0.7,17.3-2.3c5.5-1.8,9.6-4.8,11.7-8.7
		c3.1-5.4,3.3-14.1-1.4-19.4c-3.6-3.7-9.2-4.9-13.6-5.5l-24.4-3.4c-14-1.9-24.8-5.6-32.9-11.4c-6.4-4.5-11.3-10.5-14.2-17.2
		c-2.7-6.3-4.2-13.8-4.2-22.2c0-12.1,2.9-23.6,8.6-33.1c11.3-18.8,33.3-30.7,60.3-32.9C406.9,801.6,410.5,801.4,414.7,801.4
		 M414.7,800.4c-3.8,0-7.5,0.1-11.3,0.4c-27.4,2.1-49.6,14.2-61.1,33.4c-5.8,9.7-8.8,21.2-8.8,33.6c0,8.5,1.4,16.1,4.3,22.6
		c3.1,7,8.1,13,14.5,17.6c8.3,5.9,19.2,9.7,33.4,11.6l24.4,3.4c4.4,0.6,9.8,1.7,13,5.2c4.4,4.9,4.2,13.1,1.3,18.2
		c-2,3.7-5.9,6.6-11.2,8.3c-4.8,1.6-10.2,2.3-17,2.3c-1.3,0-2.5-0.1-3.9-0.1c-8.1-0.2-15.5-1.3-22.1-3.3
		c-8.3-2.4-14.5-5.8-19.1-10.5L351,943l-34.5,31l0.1,0.1c10.8,11.3,25.2,19,41.9,22.7c7.3,1.6,15.3,2.5,24.5,2.9
		c3.2,0.1,6,0.2,8.7,0.2c6,0,11.4-0.3,16.5-1c17.7-2.2,33.4-8.3,45.1-17.5c12.9-10.2,21-24.6,22.6-40.7c1.4-13.5,0.4-32.4-12-45
		c-8.1-8.3-19.4-13.3-35.7-16.1c-1.3-0.2-2.7-0.4-4.1-0.6l-24.4-3.4c-4.8-0.6-13-2.5-16.1-9.3c-2.8-6,0.4-12.8,4.5-16.7
		c5.5-5.2,13.1-6.5,18.6-6.7c1.5-0.1,2.9-0.1,4.4-0.1c10.9,0,24.5,1.2,34.7,11.2l0.5,0.5l34.1-30.5l-0.1-0.1
		c-9.1-9.1-20.4-15.7-33.3-19.2C437.4,801.8,426.3,800.4,414.7,800.4L414.7,800.4z"/>
</g>
<polygon fill="#1F2F32" points="593.1,918.3 662.8,802 671.3,819.9 601.6,936 "/>
<polygon fill="#1C2B2E" points="543.2,802.5 543.6,802.4 551.7,819.8 572.4,871.3 571.3,873.2 "/>
<polygon fill="#1C2B2E" points="588.1,997.8 593.2,917.5 601.8,935.6 596.8,1016 "/>
<polygon fill="#263639" points="546,1015.4 537.6,997.7 588.4,997.7 597,1015.4 "/>
<polygon fill="#1C2B2E" points="718.4,998.1 724.6,898.8 733.3,917.1 727.1,1016.2 "/>
<polygon fill="#263639" points="676.3,1015.6 667.8,997.8 718.7,997.8 727.2,1015.6 "/>
<polygon fill="#1E2D30" points="732.9,917.2 724.6,899.8 725,899.6 784.3,997.9 792.7,1015.3 792.3,1015.5 "/>
<polygon fill="#1C2B2E" points="828.2,998.1 840.5,801.7 849.1,819.8 836.7,1016.2 "/>
<polygon fill="#263639" points="792.4,1015.6 783.8,997.8 828.5,997.8 836.8,1015.6 "/>
<path fill="#1E2D30" d="M959,852l0.3-0.2c0.5,0.6,0.9,1.2,1.2,1.8c0,0,0.1,0.1,0.1,0.2c1.3,2.2,2.4,4.8,3.3,7.7l-0.4,0.1L959,852z"
	/>
<path fill="#202F33" d="M965.7,867.7c-1.1-1.1-2.4-2.2-3.7-3.1l0,0l-9-18.6l1.2,0.8c2,1.3,3.9,2.9,5.2,4.8l4.6,9.7
	c0.3,1,0.5,2.1,0.7,3.1l1.5,3.1l-0.3,0.8L965.7,867.7z"/>
<path fill="#223235" d="M962.1,864.8c-3.3-2-7.2-3.2-11.9-3.5h-0.1l-8.5-17.7h0.3c4.8,0.3,8.8,1.4,11.8,3.5l0.2,0.2l8.7,17.8
	L962.1,864.8z"/>
<path fill="#263639" d="M933,844.1h0.3c2-0.4,4.2-0.6,6.3-0.6c0.8,0,1.6,0,2.4,0.1h0.1l0.2,0.1l8.4,17.6h-0.3
	c-0.8-0.1-1.7-0.1-2.5-0.1c-2.1,0-4.3,0.1-6.2,0.5h-0.2L933,844.1z"/>
<path fill="#223235" d="M921.9,849L921.9,849c3.3-2.4,7.1-4.2,11.3-5h0.2l0.2,0.1l8.5,17.5l-0.4,0.1c-4.3,0.8-8.1,2.4-11.2,4.8
	l-0.2,0.1L921.9,849z"/>
<path fill="#202F33" d="M917,854.1L917,854.1c0.6-0.8,1.1-1.6,1.9-2.4c0.8-0.9,1.8-1.8,2.9-2.6l0.2-0.1l0.2,0.1l8.3,17.4l-0.1,0.1
	c-1.1,0.8-2.1,1.7-2.9,2.7c-0.7,0.9-1.3,1.6-1.8,2.3l-0.2,0.3L917,854.1z"/>
<path fill="#1E2D30" d="M1015.4,864.6c-0.9-8.2-2.8-15.8-5.6-22.7c-0.6-1.5-1.1-2.6-1.6-3.8l0,0l0.4-0.2l-0.2,0.1l0.2-0.1l8.3,17.3
	c3.8,7.8,6.2,16.7,7.3,26.5l-0.4,0.1L1015.4,864.6z"/>
<polygon fill="#263639" points="972.6,882 964.2,864.3 1015.8,864.3 1024.3,882 "/>
<path fill="#1E2D30" d="M916.1,952c-3.6-2.7-6.2-7-7.4-12c-1.6-6.4-1.6-13-1.5-20.4c0.1-7.1,0.4-14.6,1.1-24
	c0.5-6.7,1.1-14.4,2.4-22.3c1-6.5,2.3-13.1,6.1-18.7c0.1-0.2,0.3-0.4,0.4-0.6l0.2-0.3l8.5,17.7l-0.2,0.4c-3.8,5.6-5.1,12.4-6.2,18.9
	c-1.2,7.7-1.9,15.6-2.3,22.2l-0.2,2.4c-0.9,12.1-1.7,24.4-0.4,36.5l0.1,0.5L916.1,952z"/>
<path fill="#1E2D30" d="M997.5,966.7L997.5,966.7c5.4-7.8,9.6-16.7,12.4-26.5c0.4-1.5,0.8-2.8,1.1-4.2l0.1-0.5l8.5,17.9v0.1
	c-2.7,11.7-7.3,22-13.3,30.8l-0.2,0.3L997.5,966.7z"/>
<path fill="#202F33" d="M981.5,983.5L981.5,983.5c6.2-4.8,11.6-10.4,16.1-16.7l0.3-0.5l8.5,17.7l-0.1,0.1
	c-4.6,6.5-10,12.2-16.2,16.9l-0.2,0.1L981.5,983.5z"/>
<path fill="#223235" d="M947.8,997.8h0.3c12.4-2.3,23.8-7.2,33.2-14.1l0.6-0.4l8.4,17.7l-0.1,0.1c-9.5,7.1-21.1,12.2-33.7,14.4h-0.2
	L947.8,997.8z"/>
<path fill="#263639" d="M937.8,1017.2c-2.4,0-4.9-0.1-7.2-0.2h-0.1l-8.4-17.7h0.3c2.3,0.2,4.8,0.2,7.1,0.2c6.2,0,12.3-0.5,18.1-1.6
	l0.4-0.1h0.2l8.4,17.7h-0.3C950.4,1016.6,944.1,1017.2,937.8,1017.2z"/>
<path fill="#223235" d="M930.6,1016.9c-13.2-0.9-25.2-4.6-35.4-11l0,0l-8.6-17.9l0.6,0.4c9.8,6.1,21.2,9.8,34,10.8l0,0h0.3
	c0.3,0,0.6,0,0.8,0.1h0.1l8.4,17.7L930.6,1016.9z"/>
<path fill="#202F33" d="M895.3,1006c-7.2-4.5-13.3-10.1-17.9-15.9l-8.3-17.3l0.3-0.2c4.4,5.7,10.2,10.9,17,15.3
	c0.1,0.1,0.2,0.2,0.4,0.2c0.1,0.1,0.3,0.2,0.4,0.3l0,0l8.6,17.9L895.3,1006z"/>
<path fill="#1E2D30" d="M877.4,990.1c-2.3-3.1-4.4-6.4-6-9.8l-8.3-17.3l0.4-0.2c1.6,3.4,3.6,6.6,5.9,9.7l0.1,0.2l8.2,17.3
	L877.4,990.1z"/>
<polygon fill="#4AAB00" points="100.3,861.7 128,837.3 136.5,855 108.7,879.4 "/>
<polygon fill="#50B800" points="40.5,895.7 73.7,879.3 82.3,897 48.9,913.3 "/>
<polygon fill="#388200" points="104.5,895.9 100.3,861.8 100.7,861.6 108.9,878.9 113.1,913.1 112.7,913.2 "/>
<polygon fill="#388200" points="92.5,832.8 78.4,801.9 78.8,801.7 87.1,819.1 93.4,833 "/>
<polygon fill="#439A00" points="32.6,855.1 24.3,837.7 24.7,837.5 49.1,861.7 47.2,869.6 "/>
<polygon fill="#4AAB00" points="81.8,897.1 73.2,879.2 104.8,895.6 113.4,913.5 "/>
<g>
	<polygon fill="#74C736" points="255.2,997.7 195.3,898.7 189.1,997.7 139.2,997.7 151.6,802.7 195.2,802.7 255,901.9 261.3,802.7 
		311.1,802.7 298.8,997.7 	"/>
	<path fill="#71C22F" d="M310.5,803.2l-12.2,194h-42.8l-58.9-97.3l-1.7-2.7l-0.2,3.3l-6.1,96.9h-48.8l12.2-194h42.8l58.9,97.4
		l1.7,2.7l0.2-3.3l6.1-97L310.5,803.2 M311.7,802.2h-50.9l-6.2,98l-59.2-98H151l-12.4,196h50.9l6.2-97.9l59.2,97.9h44.3L311.7,802.2
		L311.7,802.2z"/>
</g>
<g>
	<polygon fill="#74C736" points="73.6,879.3 41.2,895.1 49.3,861.6 25.2,837.8 60.9,833 78.6,802.4 92.5,833 127.2,837.8 
		100.2,861.6 104.3,895.2 	"/>
	<g>
		<path fill="#71C22F" d="M78.5,803.5l13.3,29.4l0.2,0.5l0.5,0.1l33.4,4.7l-26,22.9l-0.4,0.3l0.1,0.5l4,32.3L74,878.9l-0.4-0.2
			l-0.5,0.2l-31.3,15.3l7.8-32.1l0.1-0.5l-0.4-0.4l-23.2-22.9l34.4-4.7l0.5-0.1l0.2-0.4L78.5,803.5 M78.6,801.3l-18,31.2l-36.5,5
			l24.6,24.3l-8.2,34.3l33.3-16.2l31.2,16.2l-4.2-34.3l27.7-24.3l-35.6-5L78.6,801.3L78.6,801.3z"/>
	</g>
</g>
<g>
	<polygon fill="#314043" points="538.2,997.5 543.2,918.2 488.9,802.7 543.1,802.7 571.3,873.5 608,802.7 662.2,802.7 593,918.2 
		588,997.5 	"/>
	<path fill="#203542" d="M661.3,803.2l-68.7,114.5l-0.1,0.2v0.2l-4.9,78.7h-48.8l4.9-78.7v-0.3l-0.1-0.2l-53.9-114.5h53.1l27.7,69.5
		l0.8,2l1-1.9l36-69.6h53 M663.1,802.2h-55.4l-36.2,70.1l-28-70.1H488l54.6,116l-5,79.8h50.9l5-79.7L663.1,802.2L663.1,802.2z"/>
</g>
<g>
	<polygon fill="#314043" points="784.3,997.7 724.6,898.7 718.2,997.7 668.4,997.7 680.8,802.7 724.4,802.7 784.1,901.9 
		790.5,802.7 840.4,802.7 828.1,997.7 	"/>
	<path fill="#203542" d="M839.8,803.2l-12.2,194h-42.9l-58.8-97.3l-1.6-2.7l-0.2,3.3l-6.2,96.9H669l12.3-194.1h42.8l58.8,97.4
		l1.6,2.7l0.2-3.3l6.2-97h48.8 M840.9,802.2H790l-6.3,98l-59.1-98h-44.3l-12.5,196h50.9l6.3-97.9l59.1,97.9h44.5L840.9,802.2
		L840.9,802.2z"/>
</g>
<g>
	<path fill="#314043" d="M929.1,999.4c-10.8,0-20.8-1.7-29.7-5.1c-15.3-5.8-27.9-16.5-34.7-29.3c-9.8-18.3-8.2-39.7-6.7-60.3
		c0.2-2.6,0.4-5.5,0.5-8.1l0.1-1.6c0.8-12.7,1.6-27.1,5.6-40.6c4.2-13.8,11.9-25.5,23.1-34.6c11-9,24-15,37.7-17.4
		c5.6-1,11.4-1.5,17.1-1.5c9,0,17.4,1.1,25.2,3.5c12.6,3.7,23.5,10.3,31.3,19.3c9.1,10.4,14.7,24.3,16.7,40.5h-50.6
		c-1.3-6-3.5-10.6-6.6-14c-3.1-3.4-7.5-5.6-12.9-6.4c-1.6-0.3-3.5-0.4-5.6-0.4c-8.5,0-16.1,3.1-20.8,8.2c-3.7,4.5-5.9,9.7-7.4,16.9
		c-1.4,6.8-2.1,13.7-2.7,20.2c-0.6,6.4-1,13.6-1.4,23.1c-0.3,7.6-0.4,13.9,0.1,20.3c0.5,6.3,1.8,13.4,6.8,18.4
		c5.3,5.4,12.8,6.5,18.2,6.5c0.7,0,1.5,0,2.3-0.1c6.8-0.4,12.7-2.8,17-6.9c3.5-3.3,6.2-7.7,8.4-13.8h50.6v0.2
		c-4.2,16.9-12.1,31.2-22.9,41.4c-10.8,10.3-24.9,17.2-40.8,20C941,998.9,934.9,999.4,929.1,999.4z"/>
	<path fill="#203542" d="M942.1,801.4c8.8,0,17.3,1.1,25,3.4c12.5,3.7,23.3,10.3,31.1,19.1c8.8,10.2,14.5,23.8,16.5,39.7h-49.6
		c-1.3-5.9-3.6-10.5-6.6-13.8c-3.2-3.5-7.7-5.7-13.2-6.6c-1.7-0.3-3.6-0.4-5.6-0.4c-8.6,0-16.4,3.1-21.2,8.4
		c-3.7,4.6-6,9.8-7.5,17.1c-1.4,6.8-2.1,13.7-2.7,20.2c-0.6,6.5-1,13.6-1.4,23.2c-0.3,7.6-0.4,14,0.1,20.3c0.6,6.4,1.8,13.6,7,18.7
		c5.4,5.5,13.1,6.7,18.5,6.7c0.7,0,1.5,0,2.3-0.1c6.9-0.4,12.9-2.8,17.3-7c3.5-3.3,6.2-7.7,8.4-13.7h49.5
		c-4.2,16.6-12,30.7-22.6,40.7c-10.7,10.2-24.7,17.1-40.5,19.9c-6.1,1.1-12.1,1.7-17.9,1.7c-10.8,0-20.6-1.7-29.5-5.1
		c-15.2-5.8-27.7-16.4-34.4-29c-9.8-18.2-8.1-39.5-6.7-60c0.2-2.7,0.4-5.5,0.5-8.1l0.1-1.6c0.7-12.7,1.6-27.1,5.5-40.5
		c4.1-13.7,11.8-25.3,23-34.4c10.9-9,23.9-15,37.5-17.3C930.6,801.9,936.4,801.4,942.1,801.4 M942.1,800.4c-5.8,0-11.6,0.5-17.2,1.5
		c-13.7,2.4-27,8.5-38,17.5c-11.4,9.3-19.1,21-23.3,34.9c-3.9,13.2-4.8,27.3-5.6,40.7l-0.1,1.6c-0.1,2.6-0.3,5.4-0.5,8.1
		c-1.5,20.8-3.1,42.2,6.8,60.6c6.9,12.8,19.6,23.6,35,29.5c9.1,3.5,19,5.2,29.9,5.2c6,0,12.2-0.6,18.1-1.7c16-2.8,30.2-9.9,41-20.1
		c11-10.4,18.8-24.8,23-41.6l0.2-0.8h-51.6v0.1c-2.2,6.1-5,10.7-8.4,13.8c-4.3,4.1-10.1,6.4-16.7,6.8c-0.7,0.1-1.5,0.1-2.2,0.1
		c-5.3,0-12.7-1.1-17.8-6.4c-5.1-5.1-6.2-12.4-6.7-18.1c-0.5-6.4-0.4-12.7-0.1-20.2c0.3-7.8,0.7-15.6,1.4-23.1
		c0.6-6.5,1.3-13.3,2.7-20.1c1.5-7.3,3.9-12.4,7.3-16.6c4.6-5.2,12.1-8.1,20.3-8.1c1.8,0,3.7,0.1,5.5,0.4c5.2,0.8,9.7,2.9,12.7,6.3
		s5.2,7.9,6.5,13.9v0.2h51.6v-0.3c-1.8-16.4-7.7-30.7-16.8-41.1c-8-9.2-18.9-15.8-31.6-19.4C959.4,801.5,951,800.4,942.1,800.4
		L942.1,800.4z"/>
</g>
</svg>
