<?xml version="1.0" encoding="utf-8"?>
<!-- Generator: Adobe Illustrator 17.1.0, SVG Export Plug-In . SVG Version: 6.00 Build 0)  -->
<!DOCTYPE svg PUBLIC "-//W3C//DTD SVG 1.1//EN" "http://www.w3.org/Graphics/SVG/1.1/DTD/svg11.dtd">
<svg version="1.1" id="Layer_1" xmlns="http://www.w3.org/2000/svg" xmlns:xlink="http://www.w3.org/1999/xlink" x="0px" y="0px"
	 viewBox="5.1 1064.7 1360.9 239.3" enable-background="new 5.1 1064.7 1360.9 239.3" xml:space="preserve">
<polygon fill="#398400" points="184.8,1271.6 190.8,1174.6 199.2,1192.5 193.1,1289.3 "/>
<polygon fill="#53B905" points="143.6,1288.7 135.3,1271.3 185.1,1271.3 193.3,1288.7 "/>
<polygon fill="#3D8D00" points="198.8,1192.6 190.8,1175.6 191.1,1175.4 249.3,1271.4 257.3,1288.4 257,1288.6 "/>
<polygon fill="#3D8D00" points="190.9,1175.5 199,1192.5 257.2,1288.5 249.1,1271.5 "/>
<polygon fill="#398400" points="291.9,1271.6 304.2,1079.7 312.6,1097.4 300.3,1289.3 "/>
<polygon fill="#53B905" points="257,1288.7 248.8,1271.3 292.1,1271.3 300.5,1288.7 "/>
<polygon fill="#223235" points="436,1131 469.2,1101.1 477.4,1118.5 444.2,1148.3 "/>
<path fill="#223235" d="M384.7,1211.6c-12.6-1.8-22.7-5-30.6-10l0,0l-8.4-17.6l0.6,0.4c6.9,4.4,15.5,7.4,26.4,9.3h0.2
	c1.3,0.2,2.5,0.4,3.9,0.6h0.1l8.3,17.3H384.7z"/>
<path fill="#202F33" d="M354.1,1201.6c-4.5-2.8-8.3-6.3-11.4-10.4l-8-16.8l0.3-0.2c2.8,3.7,6.4,6.9,10.7,9.8l0.3,0.2
	c0.1,0.1,0.2,0.1,0.3,0.2l0,0l8.4,17.6L354.1,1201.6z"/>
<path fill="#151F22" d="M342.7,1191.4c-1.7-2.1-3.2-4.6-4.3-6.9l-8.1-16.9l0.4-0.2c1.1,2.3,2.4,4.7,4.1,6.7l0.2,0.3l8,16.8
	L342.7,1191.4z"/>
<polygon fill="#263639" points="384.6,1211.6 376.4,1194.3 400.7,1197.5 409,1214.9 "/>
<path fill="#1E2D30" d="M455,1242.3L455,1242.3c5.6-7.9,9-17.3,9.9-27.5c1-10.8,0.1-20.4-2.6-28.4c-0.6-1.6-1.2-3.1-1.8-4.5l0.4-0.2
	l8.1,16.9c3.9,8,5.4,17.9,4.7,30.4c-0.6,11.2-4.1,21.6-10.1,30.2l-0.2,0.3L455,1242.3z"/>
<path fill="#202F33" d="M441.5,1256.1L441.5,1256.1c4.7-3.6,8.6-7.4,11.9-11.8c0-0.1,0.1-0.1,0.2-0.2c0.2-0.2,0.3-0.4,0.5-0.7
	c0.3-0.4,0.5-0.7,0.9-1.1l0.2-0.2l8.3,17.3l-0.1,0.1c-3.5,5.2-8,9.8-13.4,13.8l-0.2,0.1L441.5,1256.1z"/>
<path fill="#223235" d="M405.5,1271h0.3c13-2.4,24.3-7,33.8-13.5c0.7-0.5,1.5-1,2.1-1.6l0.2-0.1l8.2,17.3l-0.1,0.1
	c-9.9,7.4-22,12.4-36.1,15.1h-0.2L405.5,1271z"/>
<path fill="#263639" d="M390.5,1290.2c-4.1,0-8.2-0.2-12.7-0.5h-0.1l-8.3-17.3h0.3c4.6,0.3,8.9,0.5,12.8,0.5
	c7.5,0,14.3-0.5,20.8-1.6c0.8-0.1,1.5-0.3,2.2-0.4h0.2l8.2,17.3h-0.3C406.7,1289.6,399.1,1290.2,390.5,1290.2z"/>
<path fill="#223235" d="M377.8,1289.8c-18.9-1.3-34-5.6-46-13l0,0l-8.4-17.6l0.6,0.4c11.9,7.4,26.8,11.7,45.2,12.9l0.7,0.1l8.3,17.3
	L377.8,1289.8z"/>
<path fill="#1F2E32" d="M331.8,1276.7c-5.2-3.3-10.1-7.1-14.2-11.7l-8.1-17l0.3-0.2c4.2,4.4,8.8,8.1,13.6,11.3l0.6,0.4l8.4,17.6
	L331.8,1276.7z"/>
<path fill="#202F33" d="M444.2,1148.1c-1.9-1.9-4-3.6-6.3-5l0,0l-8.4-17.6l0.6,0.4c1.7,1.1,3.4,2.2,5,3.8c0.5,0.4,0.9,0.9,1.4,1.3
	l8.1,17L444.2,1148.1z"/>
<path fill="#223235" d="M437.9,1143.2c-5.6-3.5-12.4-5.5-20.7-6.1h-0.1l-8.3-17.3h0.3c8.1,0.6,15,2.5,20.6,6l0.3,0.2l8.4,17.6
	L437.9,1143.2z"/>
<path fill="#263639" d="M391.4,1120.4h0.3c2.7-0.5,6-0.8,9.7-0.8c2.8,0,5.8,0.2,7.9,0.3h0.1l0.1,0.1l8.2,17.2h-0.3
	c-2.1-0.1-5.1-0.3-8-0.3c-3.7,0-6.7,0.3-9.6,0.8h-0.2L391.4,1120.4z"/>
<path fill="#223235" d="M380.7,1124.9L380.7,1124.9c3.1-2.2,6.7-3.9,10.9-4.7h0.2l0.1,0.1l8.2,17.1h-0.3c-4.3,0.8-7.8,2.3-10.7,4.5
	l-0.2,0.1L380.7,1124.9z"/>
<path fill="#202F33" d="M376.5,1129.3L376.5,1129.3c1.2-1.7,2.5-3.2,4.3-4.4l0.2-0.1l0.2,0.2l8.1,17l-0.1,0.1
	c-1.6,1.2-3.1,2.6-4.2,4.3l-0.2,0.3L376.5,1129.3z"/>
<path fill="#1E2D30" d="M382.7,1150.2c-2.7-1.2-7.7-4.1-9-9.8c-0.8-3.6,0.3-7.7,2.7-11.3l0.2-0.3l8.3,17.3l-0.1,0.1
	c-0.6,0.9-1.2,1.9-1.6,2.8c-0.1,0.3-0.3,0.6-0.4,0.9L382.7,1150.2L382.7,1150.2z"/>
<path fill="#202F33" d="M410.7,1200.6l0.6,0.4c0.9,0.5,1.6,1.1,2.2,1.8c0.2,0.2,0.4,0.5,0.6,0.7l0.1,0.1l2.1,4.6
	c0.1,0.4,0.2,0.7,0.2,1c0.2,1.1,0.3,2.2,0.3,3.6l-0.4,0.1L410.7,1200.6z"/>
<path fill="#223235" d="M416.2,1216.8c-2.1-0.9-4.6-1.5-7.6-1.9h-0.1l-8.3-17.3l0.4,0.1c3.2,0.4,7.3,1.2,10.8,3.4l0,0l5.6,11.5
	c0,1.6-0.1,2.8-0.4,4.2v0.2L416.2,1216.8z"/>
<g>
	<path fill="#314043" d="M382.9,1272.8c-2.3,0-5-0.1-7.6-0.2h-0.8c-9.3-0.4-17-1.3-23.8-2.8c-16.1-3.5-30.1-11-40.4-21.8l32.9-29.6
		c4.4,4.4,10.6,7.6,18.7,10.1c6.5,1.9,13.9,3,21.7,3.2c0.7,0,1.3,0,1.9,0s1.3,0,1.9,0c6.8,0,12.1-0.7,16.8-2.2
		c5.2-1.7,9.1-4.6,11.1-8.3c2.7-5,3.1-13.4-1.4-18.4c-3.4-3.5-8.8-4.6-13.1-5.2l-23.8-3.3c-13.8-1.9-24.3-5.6-32.3-11.2
		c-6.3-4.5-11.1-10.4-14.1-17c-2.6-6.3-4.1-13.6-4.1-21.9c0-11.9,3-23.2,8.5-32.5c11.1-18.5,32.7-30.2,59.3-32.3
		c3.3-0.3,6.8-0.4,10.9-0.4c11.4,0,22.2,1.4,31.7,4.2c12.1,3.4,23.3,9.8,32,18.4l-32.5,29.1l-0.2-0.2c-10-9.8-23.5-11-34.2-11
		c-1.4,0-2.7,0-4.3,0.1c-5.5,0.2-13.1,1.5-18.5,6.6c-4.2,4-7.3,10.9-4.5,16.9c2.8,6.3,10.4,8.5,16.1,9.3l23.8,3.3
		c0.6,0.1,3.3,0.5,4,0.6c15.8,2.6,26.9,7.6,34.6,15.6c12,12.2,12.9,30.4,11.5,43.6c-1.6,15.6-9.4,29.6-21.9,39.5
		c-11.4,9-26.6,14.9-43.9,17C394.1,1272.5,388.9,1272.8,382.9,1272.8z"/>
	<path fill="#203542" d="M405.1,1079.4c11.4,0,22.1,1.4,31.6,4.1c11.9,3.3,22.8,9.6,31.4,17.9l-31.7,28.4c-10.2-9.8-23.6-11-34.4-11
		c-1.4,0-2.7,0-4.3,0.1c-5.6,0.2-13.3,1.6-18.9,6.7c-4.3,4.1-7.5,11.2-4.6,17.5c3,6.5,10.6,8.9,16.5,9.6l23.8,3.3
		c0.6,0.1,1.3,0.2,2,0.3c0.7,0.1,1.3,0.2,2,0.3c15.7,2.6,26.7,7.5,34.3,15.5c6.5,6.6,13.9,19.5,11.4,43.1
		c-1.6,15.5-9.3,29.4-21.7,39.2c-11.3,9-26.5,14.8-43.6,16.9c-4.8,0.7-10.1,1-16,1c-2.3,0-5-0.1-7.6-0.2h-0.8
		c-9.3-0.4-17-1.3-23.7-2.8c-15.8-3.5-29.6-10.8-39.9-21.3L343,1219c4.5,4.3,10.6,7.5,18.6,9.9c6.5,1.9,13.9,3,21.9,3.2
		c0.6,0,1.2,0,1.9,0c0.6,0,1.3,0.1,1.9,0.1c6.8,0,12.3-0.7,16.9-2.2c5.4-1.8,9.4-4.7,11.4-8.5c3-5.3,3.2-13.8-1.4-19
		c-3.5-3.6-9-4.8-13.3-5.4l-23.8-3.3c-13.7-1.9-24.2-5.5-32.1-11.1c-6.3-4.4-11-10.3-13.9-16.8c-2.6-6.2-4.1-13.5-4.1-21.7
		c0-11.8,2.8-23.1,8.4-32.3c11-18.4,32.5-30,58.9-32.1C397.5,1079.6,401,1079.4,405.1,1079.4 M405.1,1078.5c-3.7,0-7.3,0.1-11,0.4
		c-26.8,2.1-48.5,13.9-59.7,32.6c-5.7,9.5-8.6,20.7-8.6,32.8c0,8.3,1.4,15.7,4.2,22.1c3,6.8,7.9,12.7,14.2,17.2
		c8.1,5.8,18.8,9.5,32.6,11.3l23.8,3.3c4.3,0.6,9.6,1.7,12.7,5.1c4.3,4.8,4.1,12.8,1.3,17.8c-2,3.6-5.8,6.4-10.9,8.1
		c-4.7,1.6-10,2.2-16.6,2.2c-1.3,0-2.4-0.1-3.8-0.1c-7.9-0.2-15.1-1.3-21.6-3.2c-8.1-2.3-14.2-5.7-18.7-10.3l-0.1-0.1l-33.7,30.3
		l0.1,0.1c10.6,11,24.6,18.6,40.9,22.2c7.1,1.6,14.9,2.4,23.9,2.8c3.1,0.1,5.9,0.2,8.5,0.2c5.9,0,11.1-0.3,16.1-1
		c17.3-2.1,32.6-8.1,44.1-17.1c12.6-10,20.5-24,22.1-39.8c1.4-13.2,0.4-31.7-11.7-44c-7.9-8.1-19-13-34.9-15.7
		c-1.3-0.2-2.6-0.4-4-0.6l-23.8-3.3c-4.7-0.6-12.7-2.4-15.7-9.1c-2.7-5.9,0.4-12.5,4.4-16.3c5.4-5.1,12.8-6.3,18.2-6.5
		c1.5-0.1,2.8-0.1,4.3-0.1c10.6,0,23.9,1.2,33.9,10.9l0.5,0.5l33.3-29.8l-0.1-0.1c-8.9-8.9-19.9-15.3-32.5-18.8
		C427.3,1079.8,416.4,1078.5,405.1,1078.5L405.1,1078.5z"/>
</g>
<polygon fill="#1F2F32" points="579.4,1193.6 647.4,1080 655.8,1097.5 587.7,1210.9 "/>
<polygon fill="#1C2B2E" points="530.6,1080.5 531,1080.4 538.9,1097.4 559.1,1147.7 558.1,1149.6 "/>
<polygon fill="#1C2B2E" points="574.5,1271.3 579.5,1192.9 587.9,1210.5 583,1289.1 "/>
<polygon fill="#263639" points="533.3,1288.5 525.1,1271.2 574.8,1271.2 583.2,1288.5 "/>
<polygon fill="#1C2B2E" points="701.8,1271.6 707.8,1174.6 716.3,1192.5 710.3,1289.3 "/>
<polygon fill="#263639" points="660.6,1288.7 652.3,1271.3 702.1,1271.3 710.4,1288.7 "/>
<polygon fill="#1E2D30" points="715.9,1192.6 707.8,1175.6 708.2,1175.4 766.1,1271.4 774.3,1288.4 774,1288.6 "/>
<polygon fill="#1C2B2E" points="809,1271.6 821,1079.7 829.4,1097.4 817.3,1289.3 "/>
<polygon fill="#263639" points="774.1,1288.7 765.7,1271.3 809.3,1271.3 817.4,1288.7 "/>
<path fill="#1E2D30" d="M936.8,1128.9l0.3-0.2c0.5,0.6,0.9,1.2,1.2,1.8c0,0,0.1,0.1,0.1,0.2c1.3,2.1,2.3,4.7,3.2,7.5l-0.4,0.1
	L936.8,1128.9z"/>
<path fill="#202F33" d="M943.4,1144.2c-1.1-1.1-2.3-2.1-3.6-3l0,0l-8.8-18.2l1.2,0.8c2,1.3,3.8,2.8,5.1,4.7l4.5,9.5
	c0.3,1,0.5,2.1,0.7,3l1.5,3l-0.3,0.8L943.4,1144.2z"/>
<path fill="#223235" d="M939.8,1141.4c-3.2-2-7-3.1-11.6-3.4h-0.1l-8.3-17.3h0.3c4.7,0.3,8.6,1.4,11.5,3.4l0.2,0.2l8.5,17.4
	L939.8,1141.4z"/>
<path fill="#263639" d="M911.4,1121.1h0.3c2-0.4,4.1-0.6,6.2-0.6c0.8,0,1.6,0,2.3,0.1h0.1l0.2,0.1l8.2,17.2h-0.3
	c-0.8-0.1-1.7-0.1-2.4-0.1c-2.1,0-4.2,0.1-6.1,0.5h-0.2L911.4,1121.1z"/>
<path fill="#223235" d="M900.6,1125.9L900.6,1125.9c3.2-2.3,6.9-4.1,11-4.9h0.2l0.2,0.1l8.3,17.1l-0.4,0.1
	c-4.2,0.8-7.9,2.3-10.9,4.7l-0.2,0.1L900.6,1125.9z"/>
<path fill="#202F33" d="M895.8,1130.9L895.8,1130.9c0.6-0.8,1.1-1.6,1.9-2.3c0.8-0.9,1.8-1.8,2.8-2.5l0.2-0.1l0.2,0.1l8.1,17
	l-0.1,0.1c-1.1,0.8-2.1,1.7-2.8,2.6c-0.7,0.9-1.3,1.6-1.8,2.2l-0.2,0.3L895.8,1130.9z"/>
<path fill="#1E2D30" d="M991.9,1141.2c-0.9-8-2.7-15.4-5.5-22.2c-0.6-1.5-1.1-2.5-1.6-3.7l0,0l0.4-0.2l-0.2,0.1l0.2-0.1l8.1,16.9
	c3.7,7.6,6.1,16.3,7.1,25.9l-0.4,0.1L991.9,1141.2z"/>
<polygon fill="#263639" points="950.1,1158.2 941.9,1140.9 992.3,1140.9 1000.6,1158.2 "/>
<path fill="#1E2D30" d="M894.9,1226.6c-3.5-2.6-6.1-6.8-7.2-11.7c-1.6-6.3-1.6-12.7-1.5-19.9c0.1-6.9,0.4-14.3,1.1-23.4
	c0.5-6.5,1.1-14.1,2.3-21.8c1-6.3,2.2-12.8,6-18.3c0.1-0.2,0.3-0.4,0.4-0.6l0.2-0.3l8.3,17.3l-0.2,0.4c-3.7,5.5-5,12.1-6.1,18.5
	c-1.2,7.5-1.9,15.2-2.2,21.7l-0.2,2.3c-0.9,11.8-1.7,23.8-0.4,35.7l0.1,0.5L894.9,1226.6z"/>
<path fill="#1E2D30" d="M974.4,1240.9L974.4,1240.9c5.3-7.6,9.4-16.3,12.1-25.9c0.4-1.5,0.8-2.7,1.1-4.1l0.1-0.5l8.3,17.5v0.1
	c-2.6,11.4-7.1,21.5-13,30.1l-0.2,0.3L974.4,1240.9z"/>
<path fill="#202F33" d="M958.8,1257.3L958.8,1257.3c6.1-4.7,11.3-10.2,15.7-16.3l0.3-0.5l8.3,17.3l-0.1,0.1
	c-4.5,6.3-9.8,11.9-15.8,16.5l-0.2,0.1L958.8,1257.3z"/>
<path fill="#223235" d="M925.9,1271.3h0.3c12.1-2.2,23.3-7,32.4-13.8l0.6-0.4l8.2,17.3l-0.1,0.1c-9.3,6.9-20.6,11.9-32.9,14.1h-0.2
	L925.9,1271.3z"/>
<path fill="#263639" d="M916.1,1290.2c-2.3,0-4.8-0.1-7-0.2H909l-8.2-17.3h0.3c2.2,0.2,4.7,0.2,6.9,0.2c6.1,0,12-0.5,17.7-1.6
	l0.4-0.1h0.2l8.2,17.3h-0.3C928.4,1289.7,922.3,1290.2,916.1,1290.2z"/>
<path fill="#223235" d="M909.1,1290c-12.9-0.9-24.6-4.5-34.6-10.7l0,0l-8.4-17.5l0.6,0.4c9.6,6,20.7,9.6,33.2,10.6l0,0h0.3
	c0.3,0,0.6,0,0.8,0.1h0.1l8.2,17.3L909.1,1290z"/>
<path fill="#202F33" d="M874.6,1279.3c-7-4.4-13-9.9-17.5-15.5l-8.1-16.9l0.3-0.2c4.3,5.6,10,10.6,16.6,14.9
	c0.1,0.1,0.2,0.2,0.4,0.2c0.1,0.1,0.3,0.2,0.4,0.3l0,0l8.4,17.5L874.6,1279.3z"/>
<path fill="#1E2D30" d="M857.1,1263.8c-2.2-3-4.3-6.3-5.9-9.6l-8.1-16.9l0.4-0.2c1.6,3.3,3.5,6.4,5.8,9.5l0.1,0.2l8,16.9
	L857.1,1263.8z"/>
<polygon fill="#4AAB00" points="97.9,1138.3 125,1114.5 133.3,1131.8 106.1,1155.6 "/>
<polygon fill="#50B800" points="39.5,1171.6 71.9,1155.5 80.3,1172.8 47.7,1188.7 "/>
<polygon fill="#388200" points="102,1171.7 97.9,1138.4 98.3,1138.2 106.3,1155.1 110.4,1188.6 110,1188.6 "/>
<polygon fill="#388200" points="90.3,1110.1 76.5,1079.9 76.9,1079.7 85,1096.7 91.2,1110.3 "/>
<polygon fill="#439A00" points="31.8,1131.9 23.7,1114.9 24.1,1114.7 47.9,1138.3 46.1,1146.1 "/>
<polygon fill="#4AAB00" points="79.9,1172.9 71.5,1155.4 102.3,1171.5 110.7,1188.9 "/>
<g>
	<polygon fill="#74C736" points="249.3,1271.2 190.7,1174.5 184.7,1271.2 135.9,1271.2 148,1080.7 190.6,1080.7 249.1,1177.6 
		255.2,1080.7 303.9,1080.7 291.9,1271.2 	"/>
	<path fill="#71C22F" d="M303.3,1081.2l-11.9,189.5h-41.8l-57.5-95.1l-1.7-2.6l-0.2,3.2l-6,94.7h-47.7l11.9-189.5h41.8l57.5,95.2
		l1.7,2.6l0.2-3.2l6-94.8L303.3,1081.2 M304.5,1080.2h-49.7l-6.1,95.7l-57.8-95.7h-43.4l-12.1,191.5h49.7l6.1-95.6l57.8,95.6h43.3
		L304.5,1080.2L304.5,1080.2z"/>
</g>
<g>
	<polygon fill="#74C736" points="71.8,1155.5 40.2,1171 48.1,1138.2 24.6,1115 59.4,1110.3 76.7,1080.4 90.3,1110.3 124.2,1115 
		97.8,1138.2 101.8,1171.1 	"/>
	<g>
		<path fill="#71C22F" d="M76.6,1081.5l13,28.7l0.2,0.5l0.5,0.1l32.6,4.6l-25.4,22.4l-0.4,0.3l0.1,0.5l3.9,31.6l-28.9-14.9l-0.4-0.2
			l-0.5,0.2l-30.6,14.9l7.6-31.4l0.1-0.5l-0.4-0.4l-22.7-22.4l33.6-4.6l0.5-0.1l0.2-0.4L76.6,1081.5 M76.7,1079.3l-17.6,30.5
			l-35.7,4.9l24,23.7l-8,33.5l32.5-15.8l30.5,15.8l-4.1-33.5l27.1-23.7l-34.8-4.9L76.7,1079.3L76.7,1079.3z"/>
	</g>
</g>
<g>
	<polygon fill="#314043" points="525.7,1271 530.6,1193.5 477.6,1080.7 530.5,1080.7 558.1,1149.9 593.9,1080.7 646.9,1080.7 
		579.3,1193.5 574.4,1271 	"/>
	<path fill="#203542" d="M646,1081.2L578.9,1193l-0.1,0.2v0.2l-4.8,76.9h-47.7l4.8-76.9v-0.3l-0.1-0.2l-52.7-111.9h51.9l27.1,67.9
		l0.8,2l1-1.9l35.2-68L646,1081.2 M647.7,1080.2h-54.1l-35.4,68.5l-27.4-68.5h-54.2l53.3,113.3l-4.9,78h49.7l4.9-77.9L647.7,1080.2
		L647.7,1080.2z"/>
</g>
<g>
	<polygon fill="#314043" points="766.1,1271.2 707.8,1174.5 701.6,1271.2 652.9,1271.2 665,1080.7 707.6,1080.7 765.9,1177.6 
		772.2,1080.7 820.9,1080.7 808.9,1271.2 	"/>
	<path fill="#203542" d="M820.4,1081.2l-11.9,189.5h-41.9l-57.4-95.1l-1.6-2.6l-0.2,3.2l-6.1,94.7h-47.8l12-189.6h41.8l57.4,95.2
		l1.6,2.6l0.2-3.2l6.1-94.8L820.4,1081.2 M821.4,1080.2h-49.7l-6.2,95.7l-57.7-95.7h-43.3l-12.2,191.5h49.7l6.2-95.6l57.7,95.6h43.5
		L821.4,1080.2L821.4,1080.2z"/>
</g>
<g>
	<path fill="#314043" d="M907.6,1272.9c-10.6,0-20.3-1.7-29-5c-14.9-5.7-27.3-16.1-33.9-28.6c-9.6-17.9-8-38.8-6.5-58.9
		c0.2-2.5,0.4-5.4,0.5-7.9l0.1-1.6c0.8-12.4,1.6-26.5,5.5-39.7c4.1-13.5,11.6-24.9,22.6-33.8c10.7-8.8,23.4-14.7,36.8-17
		c5.5-1,11.1-1.5,16.7-1.5c8.8,0,17,1.1,24.6,3.4c12.3,3.6,23,10.1,30.6,18.9c8.9,10.2,14.4,23.7,16.3,39.6h-49.4
		c-1.3-5.9-3.4-10.4-6.4-13.7c-3-3.3-7.3-5.5-12.6-6.3c-1.6-0.3-3.4-0.4-5.5-0.4c-8.3,0-15.7,3-20.3,8c-3.6,4.4-5.8,9.5-7.2,16.5
		c-1.4,6.6-2.1,13.4-2.6,19.7c-0.6,6.3-1,13.3-1.4,22.6c-0.3,7.4-0.4,13.6,0.1,19.8c0.5,6.2,1.8,13.1,6.6,18
		c5.2,5.3,12.5,6.3,17.8,6.3c0.7,0,1.5,0,2.2-0.1c6.6-0.4,12.4-2.7,16.6-6.7c3.4-3.2,6.1-7.5,8.2-13.5h49.4v0.2
		c-4.1,16.5-11.8,30.5-22.4,40.4c-10.6,10.1-24.3,16.8-39.9,19.5C919.2,1272.4,913.3,1272.9,907.6,1272.9z"/>
	<path fill="#203542" d="M920.3,1079.4c8.6,0,16.9,1.1,24.4,3.3c12.2,3.6,22.8,10.1,30.4,18.7c8.6,10,14.2,23.3,16.1,38.8h-48.5
		c-1.3-5.8-3.5-10.3-6.4-13.5c-3.1-3.4-7.5-5.6-12.9-6.4c-1.7-0.3-3.5-0.4-5.5-0.4c-8.4,0-16,3-20.7,8.2c-3.6,4.5-5.9,9.6-7.3,16.7
		c-1.4,6.6-2.1,13.4-2.6,19.7c-0.6,6.3-1,13.3-1.4,22.7c-0.3,7.4-0.4,13.7,0.1,19.8c0.6,6.3,1.8,13.3,6.8,18.3
		c5.3,5.4,12.8,6.5,18.1,6.5c0.7,0,1.5,0,2.2-0.1c6.7-0.4,12.6-2.7,16.9-6.8c3.4-3.2,6.1-7.5,8.2-13.4h48.4
		c-4.1,16.2-11.7,30-22.1,39.8c-10.5,10-24.1,16.7-39.6,19.4c-6,1.1-11.8,1.7-17.5,1.7c-10.6,0-20.1-1.7-28.8-5
		c-14.8-5.7-27.1-16-33.6-28.3c-9.6-17.8-7.9-38.6-6.5-58.6c0.2-2.6,0.4-5.4,0.5-7.9l0.1-1.6c0.7-12.4,1.6-26.5,5.4-39.6
		c4-13.4,11.5-24.7,22.5-33.6c10.6-8.8,23.3-14.7,36.6-16.9C909.1,1079.9,914.7,1079.4,920.3,1079.4 M920.3,1078.5
		c-5.7,0-11.3,0.5-16.8,1.5c-13.4,2.3-26.4,8.3-37.1,17.1c-11.1,9.1-18.7,20.5-22.8,34.1c-3.8,12.9-4.7,26.7-5.5,39.8l-0.1,1.6
		c-0.1,2.5-0.3,5.3-0.5,7.9c-1.5,20.3-3,41.2,6.6,59.2c6.7,12.5,19.1,23.1,34.2,28.8c8.9,3.4,18.6,5.1,29.2,5.1
		c5.9,0,11.9-0.6,17.7-1.7c15.6-2.7,29.5-9.7,40.1-19.6c10.7-10.2,18.4-24.2,22.5-40.6l0.2-0.8h-50.4v0.1c-2.1,6-4.9,10.5-8.2,13.5
		c-4.2,4-9.9,6.3-16.3,6.6c-0.7,0.1-1.5,0.1-2.1,0.1c-5.2,0-12.4-1.1-17.4-6.3c-5-5-6.1-12.1-6.5-17.7c-0.5-6.3-0.4-12.4-0.1-19.7
		c0.3-7.6,0.7-15.2,1.4-22.6c0.6-6.3,1.3-13,2.6-19.6c1.5-7.1,3.8-12.1,7.1-16.2c4.5-5.1,11.8-7.9,19.8-7.9c1.8,0,3.6,0.1,5.4,0.4
		c5.1,0.8,9.5,2.8,12.4,6.2c2.9,3.3,5.1,7.7,6.3,13.6v0.2h50.4v-0.3c-1.8-16-7.5-30-16.4-40.2c-7.8-9-18.5-15.4-30.9-19
		C937.2,1079.5,929,1078.5,920.3,1078.5L920.3,1078.5z"/>
</g>
</svg>
